{
  "accessors": [
    {
      "bufferView": 2,
      "componentType": 5126,
      "count": 5160,
      "max": [
        0.46164220571517944,
        0.47218772768974304,
        0.17816376686096191
      ],
      "min": [
        -0.44060173630714417,
        -0.19658128917217255,
        -0.15372830629348755
      ],
      "type": "VEC3"
    },
    {
      "bufferView": 2,
      "byteOffset": 61920,
      "componentType": 5126,
      "count": 5160,
      "max": [
        0.99950838088989258,
        0.99999916553497314,
        0.99999511241912842
      ],
      "min": [
        -0.999991774559021,
        -0.99999701976776123,
        -0.9999849796295166
      ],
      "type": "VEC3"
    },
    {
      "bufferView": 1,
      "componentType": 5126,
      "count": 5160,
      "max": [
        0.99397456645965576,
        0.97986733913421631
      ],
      "min": [
        0.25858503580093384,
        0.0026089644525200129
      ],
      "type": "VEC2"
    },
    {
      "bufferView": 0,
      "componentType": 5125,
      "count": 27360,
      "max": [
        5159
      ],
      "min": [
        0
      ],
      "type": "SCALAR"
    },
    {
      "bufferView": 2,
      "byteOffset": 123840,
      "componentType": 5126,
      "count": 5948,
      "max": [
        0.16007687151432037,
        0.19924153387546539,
        0.14586387574672699
      ],
      "min": [
        -0.16007691621780396,
        -0.19068737328052521,
        -0.13426235318183899
      ],
      "type": "VEC3"
    },
    {
      "bufferView": 2,
      "byteOffset": 195216,
      "componentType": 5126,
      "count": 5948,
      "max": [
        0.99998581409454346,
        1,
        0.99999940395355225
      ],
      "min": [
        -0.99998581409454346,
        -0.99997329711914062,
        -0.99999904632568359
      ],
      "type": "VEC3"
    },
    {
      "bufferView": 1,
      "byteOffset": 41280,
      "componentType": 5126,
      "count": 5948,
      "max": [
        0.996604323387146,
        0.83212739229202271
      ],
      "min": [
        0.16385844349861145,
        0.0026074855122715235
      ],
      "type": "VEC2"
    },
    {
      "bufferView": 0,
      "byteOffset": 109440,
      "componentType": 5125,
      "count": 32736,
      "max": [
        5947
      ],
      "min": [
        0
      ],
      "type": "SCALAR"
    },
    {
      "bufferView": 2,
      "byteOffset": 266592,
      "componentType": 5126,
      "count": 950,
      "max": [
        0.078637018799781799,
        0.21661314368247986,
        0.13558870553970337
      ],
      "min": [
        -0.34628963470458984,
        -0.35529085993766785,
        -0.12778611481189728
      ],
      "type": "VEC3"
    },
    {
      "bufferView": 2,
      "byteOffset": 277992,
      "componentType": 5126,
      "count": 950,
      "max": [
        0.99994492530822754,
        0.39504584670066833,
        0.99970817565917969
      ],
      "min": [
        -0.99812263250350952,
        -0.99920642375946045,
        -0.99861907958984375
      ],
      "type": "VEC3"
    },
    {
      "bufferView": 1,
      "byteOffset": 88864,
      "componentType": 5126,
      "count": 950,
      "max": [
        0.98533809185028076,
        0.097671203315258026
      ],
      "min": [
        0.82910817861557007,
        0.0032835830934345722
      ],
      "type": "VEC2"
    },
    {
      "bufferView": 0,
      "byteOffset": 240384,
      "componentType": 5125,
      "count": 4992,
      "max": [
        949
      ],
      "min": [
        0
      ],
      "type": "SCALAR"
    },
    {
      "bufferView": 2,
      "byteOffset": 289392,
      "componentType": 5126,
      "count": 704,
      "max": [
        0.097199082374572754,
        0.043753519654273987,
        0.046947862952947617
      ],
      "min": [
        -0.097199082374572754,
        -0.043753519654273987,
        -0.046947862952947617
      ],
      "type": "VEC3"
    },
    {
      "bufferView": 2,
      "byteOffset": 297840,
      "componentType": 5126,
      "count": 704,
      "max": [
        0.99511474370956421,
        0.99998092651367188,
        0.9998924732208252
      ],
      "min": [
        -0.998343825340271,
        -0.99996137619018555,
        -0.92813754081726074
      ],
      "type": "VEC3"
    },
    {
      "bufferView": 1,
      "byteOffset": 96464,
      "componentType": 5126,
      "count": 704,
      "max": [
        0.93682622909545898,
        0.073803320527076721
      ],
      "min": [
        0.17425331473350525,
        0.019306695088744164
      ],
      "type": "VEC2"
    },
    {
      "bufferView": 0,
      "byteOffset": 260352,
      "componentType": 5125,
      "count": 3576,
      "max": [
        703
      ],
      "min": [
        0
      ],
      "type": "SCALAR"
    },
    {
      "bufferView": 2,
      "byteOffset": 306288,
      "componentType": 5126,
      "count": 904,
      "max": [
        0.034591134637594223,
        0.10768131166696548,
        0.042153172194957733
      ],
      "min": [
        -0.055669292807579041,
        -0.053198374807834625,
        -0.029828980565071106
      ],
      "type": "VEC3"
    },
    {
      "bufferView": 2,
      "byteOffset": 317136,
      "componentType": 5126,
      "count": 904,
      "max": [
        0.99950242042541504,
        0.99957048892974854,
        0.99956834316253662
      ],
      "min": [
        -0.99899870157241821,
        -0.58325773477554321,
        -0.99958014488220215
      ],
      "type": "VEC3"
    },
    {
      "bufferView": 1,
      "byteOffset": 102096,
      "componentType": 5126,
      "count": 904,
      "max": [
        0.97883337736129761,
        0.66611963510513306
      ],
      "min": [
        0.0026055751368403435,
        0.31510955095291138
      ],
      "type": "VEC2"
    },
    {
      "bufferView": 0,
      "byteOffset": 274656,
      "componentType": 5125,
      "count": 4860,
      "max": [
        903
      ],
      "min": [
        0
      ],
      "type": "SCALAR"
    },
    {
      "bufferView": 2,
      "byteOffset": 327984,
      "componentType": 5126,
      "count": 74,
      "max": [
        0.0094510316848754883,
        0.05115533247590065,
        0.0094510335475206375
      ],
      "min": [
        -0.0094510344788432121,
        -0.05115533247590065,
        -0.0094510335475206375
      ],
      "type": "VEC3"
    },
    {
      "bufferView": 2,
      "byteOffset": 328872,
      "componentType": 5126,
      "count": 74,
      "max": [
        1,
        0.92829567193984985,
        1
      ],
      "min": [
        -1,
        -0.92829567193984985,
        -1
      ],
      "type": "VEC3"
    },
    {
      "bufferView": 1,
      "byteOffset": 109328,
      "componentType": 5126,
      "count": 74,
      "max": [
        0.96152752637863159,
        0.30585500597953796
      ],
      "min": [
        0.71732139587402344,
        0.0026028442662209272
      ],
      "type": "VEC2"
    },
    {
      "bufferView": 0,
      "byteOffset": 294096,
      "componentType": 5125,
      "count": 276,
      "max": [
        73
      ],
      "min": [
        0
      ],
      "type": "SCALAR"
    },
    {
      "bufferView": 2,
      "byteOffset": 329760,
      "componentType": 5126,
      "count": 5506,
      "max": [
        0.19780734181404114,
        0.2763792872428894,
        0.12286815047264099
      ],
      "min": [
        -0.24874451756477356,
        -0.16911473870277405,
        -0.25538337230682373
      ],
      "type": "VEC3"
    },
    {
      "bufferView": 2,
      "byteOffset": 395832,
      "componentType": 5126,
      "count": 5506,
      "max": [
        0.99985861778259277,
        0.99986779689788818,
        0.99970555305480957
      ],
      "min": [
        -0.99997186660766602,
        -0.99969398975372314,
        -0.99872046709060669
      ],
      "type": "VEC3"
    },
    {
      "bufferView": 1,
      "byteOffset": 109920,
      "componentType": 5126,
      "count": 5506,
      "max": [
        0.95482063293457031,
        0.95498621463775635
      ],
      "min": [
        0.39627000689506531,
        0.0026054508052766323
      ],
      "type": "VEC2"
    },
    {
      "bufferView": 0,
      "byteOffset": 295200,
      "componentType": 5125,
      "count": 32256,
      "max": [
        5505
      ],
      "min": [
        0
      ],
      "type": "SCALAR"
    },
    {
      "bufferView": 2,
      "byteOffset": 461904,
      "componentType": 5126,
      "count": 698,
      "max": [
        0.097199060022830963,
        0.04375351220369339,
        0.046947859227657318
      ],
      "min": [
        -0.097199060022830963,
        -0.043753497302532196,
        -0.046947859227657318
      ],
      "type": "VEC3"
    },
    {
      "bufferView": 2,
      "byteOffset": 470280,
      "componentType": 5126,
      "count": 698,
      "max": [
        0.9951176643371582,
        0.99996137619018555,
        0.9998924732208252
      ],
      "min": [
        -0.998343825340271,
        -0.99998092651367188,
        -0.92813754081726074
      ],
      "type": "VEC3"
    },
    {
      "bufferView": 1,
      "byteOffset": 153968,
      "componentType": 5126,
      "count": 698,
      "max": [
        0.94820535182952881,
        0.076386719942092896
      ],
      "min": [
        0.25085490942001343,
        0.0033398659434169531
      ],
      "type": "VEC2"
    },
    {
      "bufferView": 0,
      "byteOffset": 424224,
      "componentType": 5125,
      "count": 3576,
      "max": [
        697
      ],
      "min": [
        0
      ],
      "type": "SCALAR"
    },
    {
      "bufferView": 2,
      "byteOffset": 478656,
      "componentType": 5126,
      "count": 904,
      "max": [
        0.079360149800777435,
        0.045112449675798416,
        0.036033842712640762
      ],
      "min": [
        -0.079360149800777435,
        -0.045112501829862595,
        -0.036033842712640762
      ],
      "type": "VEC3"
    },
    {
      "bufferView": 2,
      "byteOffset": 489504,
      "componentType": 5126,
      "count": 904,
      "max": [
        0.60305643081665039,
        0.99892926216125488,
        0.9994804859161377
      ],
      "min": [
        -0.99818992614746094,
        -0.9991147518157959,
        -0.99944734573364258
      ],
      "type": "VEC3"
    },
    {
      "bufferView": 1,
      "byteOffset": 159552,
      "componentType": 5126,
      "count": 904,
      "max": [
        0.72823518514633179,
        0.99715983867645264
      ],
      "min": [
        0.0026042605750262737,
        0.0026008528657257557
      ],
      "type": "VEC2"
    },
    {
      "bufferView": 0,
      "byteOffset": 438528,
      "componentType": 5125,
      "count": 4860,
      "max": [
        903
      ],
      "min": [
        0
      ],
      "type": "SCALAR"
    },
    {
      "bufferView": 2,
      "byteOffset": 500352,
      "componentType": 5126,
      "count": 592,
      "max": [
        0.099937081336975098,
        0.0056571145541965961,
        0.040341883897781372
      ],
      "min": [
        -0.099937066435813904,
        -0.0056571145541965961,
        -0.040341898798942566
      ],
      "type": "VEC3"
    },
    {
      "bufferView": 2,
      "byteOffset": 507456,
      "componentType": 5126,
      "count": 592,
      "max": [
        1,
        1,
        1
      ],
      "min": [
        -1,
        -1,
        -1
      ],
      "type": "VEC3"
    },
    {
      "bufferView": 1,
      "byteOffset": 166784,
      "componentType": 5126,
      "count": 592,
      "max": [
        0.99131357669830322,
        0.071226261556148529
      ],
      "min": [
        0.0026046908460557461,
        0.0025994200259447098
      ],
      "type": "VEC2"
    },
    {
      "bufferView": 0,
      "byteOffset": 457968,
      "componentType": 5125,
      "count": 888,
      "max": [
        591
      ],
      "min": [
        0
      ],
      "type": "SCALAR"
    }
  ],
  "asset": {
    "extras": {
      "author": "Warkarma (https://sketchfab.com/warkarma)",
      "license": "CC-BY-4.0 (http://creativecommons.org/licenses/by/4.0/)",
      "source": "https://sketchfab.com/3d-models/famous-day-20-3december-81b57f0dd4684fe9bb96ca11843ca197",
      "title": "Famous - Day 20 - 3December"
    },
    "generator": "Sketchfab-9.94.0",
    "version": "2.0"
  },
  "bufferViews": [
    {
      "buffer": 0,
      "byteLength": 461520,
      "byteOffset": 0,
      "name": "floatBufferViews",
      "target": 34963
    },
    {
      "buffer": 0,
      "byteLength": 171520,
      "byteOffset": 461520,
      "byteStride": 8,
      "name": "floatBufferViews",
      "target": 34962
    },
    {
      "buffer": 0,
      "byteLength": 514560,
      "byteOffset": 633040,
      "byteStride": 12,
      "name": "floatBufferViews",
      "target": 34962
    }
  ],
  "buffers": [
    {
      "byteLength": 1147600,
      "uri": "scene.bin"
    }
  ],
  "images": [
    {
      "uri": "textures/Alber_Einstein_baseColor.png"
    },
    {
      "uri": "textures/Alber_Einstein_metallicRoughness.png"
    }
  ],
  "materials": [
    {
      "doubleSided": true,
      "name": "Alber_Einstein",
      "occlusionTexture": {
        "index": 1,
        "strength": 1,
        "texCoord": 0
      },
      "pbrMetallicRoughness": {
        "baseColorFactor": [
          1,
          1,
          1,
          1
        ],
        "baseColorTexture": {
          "index": 0,
          "texCoord": 0
        },
        "metallicFactor": 0,
        "metallicRoughnessTexture": {
          "index": 1,
          "texCoord": 0
        },
        "roughnessFactor": 1
      }
    }
  ],
  "meshes": [
    {
      "primitives": [
        {
          "attributes": {
            "NORMAL": 1,
            "POSITION": 0,
            "TEXCOORD_0": 2
          },
          "indices": 3,
          "material": 0,
          "mode": 4
        }
      ]
    },
    {
      "primitives": [
        {
          "attributes": {
            "NORMAL": 5,
            "POSITION": 4,
            "TEXCOORD_0": 6
          },
          "indices": 7,
          "material": 0,
          "mode": 4
        }
      ]
    },
    {
      "primitives": [
        {
          "attributes": {
            "NORMAL": 9,
            "POSITION": 8,
            "TEXCOORD_0": 10
          },
          "indices": 11,
          "material": 0,
          "mode": 4
        }
      ]
    },
    {
      "primitives": [
        {
          "attributes": {
            "NORMAL": 13,
            "POSITION": 12,
            "TEXCOORD_0": 14
          },
          "indices": 15,
          "material": 0,
          "mode": 4
        }
      ]
    },
    {
      "primitives": [
        {
          "attributes": {
            "NORMAL": 17,
            "POSITION": 16,
            "TEXCOORD_0": 18
          },
          "indices": 19,
          "material": 0,
          "mode": 4
        }
      ]
    },
    {
      "primitives": [
        {
          "attributes": {
            "NORMAL": 21,
            "POSITION": 20,
            "TEXCOORD_0": 22
          },
          "indices": 23,
          "material": 0,
          "mode": 4
        }
      ]
    },
    {
      "primitives": [
        {
          "attributes": {
            "NORMAL": 25,
            "POSITION": 24,
            "TEXCOORD_0": 26
          },
          "indices": 27,
          "material": 0,
          "mode": 4
        }
      ]
    },
    {
      "primitives": [
        {
          "attributes": {
            "NORMAL": 29,
            "POSITION": 28,
            "TEXCOORD_0": 30
          },
          "indices": 31,
          "material": 0,
          "mode": 4
        }
      ]
    },
    {
      "primitives": [
        {
          "attributes": {
            "NORMAL": 33,
            "POSITION": 32,
            "TEXCOORD_0": 34
          },
          "indices": 35,
          "material": 0,
          "mode": 4
        }
      ]
    },
    {
      "primitives": [
        {
          "attributes": {
            "NORMAL": 37,
            "POSITION": 36,
            "TEXCOORD_0": 38
          },
          "indices": 39,
          "material": 0,
          "mode": 4
        }
      ]
    }
  ],
  "nodes": [
    {
      "children": [
        1
      ],
      "name": "RootNode (gltf orientation matrix)",
      "rotation": [
        -0.70710678118654746,
        -0,
        -0,
        0.70710678118654757
      ]
    },
    {
      "children": [
        2
      ],
      "name": "RootNode (model correction matrix)"
    },
    {
      "children": [
        3
      ],
      "name": "root"
    },
    {
      "children": [
        4,
        6,
        8,
        10,
        12,
        14,
        16,
        18,
        20,
        22
      ],
      "matrix": [
        1,
        0,
        0,
        0,
        0,
        2.2204460492503131e-16,
        1,
        0,
        0,
        -1,
        2.2204460492503131e-16,
        0,
        0,
        0,
        0,
        1
      ],
      "name": "GLTF_SceneRootNode"
    },
    {
      "children": [
        5
      ],
      "matrix": [
        1,
        0,
        0,
        0,
        0,
        1,
        0,
        0,
        0,
        0,
        1,
        0,
        0.0068602580577135086,
        0.79279351234436035,
        0.078360952436923981,
        1
      ],
      "name": "Top_0"
    },
    {
      "mesh": 0,
      "name": ""
    },
    {
      "children": [
        7
      ],
      "matrix": [
        0.99564012096098808,
        0.093277808361845224,
        0,
        0,
        -0.093277808361845224,
        0.99564012096098808,
        0,
        0,
        0,
        0,
        1,
        0,
        -0.0041326731443405151,
        1.4136070013046265,
        0.078360937535762787,
        1
      ],
      "name": "head_1"
    },
    {
      "mesh": 1,
      "name": ""
    },
    {
      "children": [
        9
      ],
      "matrix": [
        1,
        0,
        0,
        0,
        0,
        1,
        0,
        0,
        0,
        0,
        1,
        0,
        0.081388324499130249,
        0.43850553035736084,
        0.078360803425312042,
        1
      ],
      "name": "Trousers_2"
    },
    {
      "mesh": 2,
      "name": ""
    },
    {
      "children": [
        11
      ],
      "matrix": [
        0.90630810004701656,
        2.0573899833786768e-08,
        0.42261759048715275,
        0,
        -0.42261759048715275,
        -4.5611159293912351e-09,
        0.90630810004701678,
        0,
        2.0573899833786768e-08,
        -0.99999999999999978,
        4.5611157073466302e-09,
        0,
        0.12845298647880554,
        0.046089410781860352,
        0.096962049603462219,
        1
      ],
      "name": "shoe.l_3"
    },
    {
      "mesh": 3,
      "name": ""
    },
    {
      "children": [
        13
      ],
      "matrix": [
        0.72153168953093916,
        -0.69023333795009922,
        -0.054497341080942716,
        0,
        0.69237812754047379,
        0.71953223911552455,
        0.053720437237118994,
        0,
        0.0021329571434977219,
        -0.076493764815596901,
        0.99706777825690474,
        0,
        0.45593279600143433,
        1.1723198890686035,
        0.069429092109203339,
        1
      ],
      "name": "hand.l_4"
    },
    {
      "mesh": 4,
      "name": ""
    },
    {
      "children": [
        15
      ],
      "matrix": [
        0.88269200929308633,
        -0.45468178840222229,
        -0.11882461035278272,
        0,
        0.46935431837599395,
        0.86567185071070663,
        0.17412286096003043,
        0,
        0.02369262653105389,
        -0.20946770200309339,
        0.97752848616580135,
        0,
        0.49414417147636414,
        1.2719939947128296,
        0.094520360231399536,
        1
      ],
      "name": "chalk_5"
    },
    {
      "mesh": 5,
      "name": ""
    },
    {
      "children": [
        17
      ],
      "matrix": [
        0.99564012096098808,
        0.093277808361845224,
        0,
        0,
        -0.093277808361845224,
        0.99564012096098808,
        0,
        0,
        0,
        0,
        1,
        0,
        0.0033207163214683533,
        1.4291626214981079,
        0.078360937535762787,
        1
      ],
      "name": "hair_6"
    },
    {
      "mesh": 6,
      "name": ""
    },
    {
      "children": [
        19
      ],
      "matrix": [
        -0.15083999077356602,
        -0.19284104286007442,
        0.96956672249622389,
        0,
        -0.92622373263643842,
        0.37033480666551666,
        -0.070439534872384135,
        0,
        -0.34548067136158861,
        -0.90866080754077494,
        -0.23447524934391839,
        0,
        -0.23709774017333984,
        0.072862446308135986,
        0.09634312242269516,
        1
      ],
      "name": "Shoe.r_7"
    },
    {
      "mesh": 7,
      "name": ""
    },
    {
      "children": [
        21
      ],
      "matrix": [
        0.57980841028076191,
        0.53228723705315051,
        -0.61684074495611807,
        0,
        0.37501948733442159,
        0.49776741783136491,
        0.78204090805080206,
        0,
        0.72331361903888081,
        -0.6847611956118852,
        0.088991648468035311,
        0,
        -0.42591342329978943,
        0.85906660556793213,
        0.253917396068573,
        1
      ],
      "name": "hand.r_8"
    },
    {
      "mesh": 8,
      "name": ""
    },
    {
      "children": [
        23
      ],
      "matrix": [
        1,
        0,
        0,
        0,
        0,
        0,
        1,
        0,
        0,
        -1,
        0,
        0,
        0.40441805124282837,
        1.3356951475143433,
        0.091036304831504822,
        1
      ],
      "name": "formula_9"
    },
    {
      "mesh": 9,
      "name": ""
    }
  ],
  "samplers": [
    {
      "magFilter": 9729,
      "minFilter": 9987,
      "wrapS": 10497,
      "wrapT": 10497
    }
  ],
  "scene": 0,
  "scenes": [
    {
      "name": "OSG_Scene",
      "nodes": [
        0
      ]
    }
  ],
  "textures": [
    {
      "sampler": 0,
      "source": 0
    },
    {
      "sampler": 0,
      "source": 1
    }
  ]
}

