{
  "accessors": [
    {
      "bufferView": 2,
      "componentType": 5126,
      "count": 31872,
      "max": [
        0.84831547737121582,
        3.8388051986694336,
        1.9520246982574463
      ],
      "min": [
        -0.87983798980712891,
        -0.030165672302246094,
        -1.9466023445129395
      ],
      "type": "VEC3"
    },
    {
      "bufferView": 2,
      "byteOffset": 382464,
      "componentType": 5126,
      "count": 31872,
      "max": [
        0.99996358156204224,
        0.99994450807571411,
        0.99991327524185181
      ],
      "min": [
        -0.99996358156204224,
        -0.999958336353302,
        -0.99920743703842163
      ],
      "type": "VEC3"
    },
    {
      "bufferView": 1,
      "componentType": 5126,
      "count": 31872,
      "max": [
        0.99252402782440186,
        0.99214839935302734
      ],
      "min": [
        0.0081390747800469398,
        0.0079960823059082031
      ],
      "type": "VEC2"
    },
    {
      "bufferView": 1,
      "byteOffset": 254976,
      "componentType": 5126,
      "count": 31872,
      "max": [
        0.99252402782440186,
        0.99214839935302734
      ],
      "min": [
        0.0081390747800469398,
        0.0079960823059082031
      ],
      "type": "VEC2"
    },
    {
      "bufferView": 1,
      "byteOffset": 509952,
      "componentType": 5126,
      "count": 31872,
      "max": [
        0.99252402782440186,
        0.99214839935302734
      ],
      "min": [
        0.0081390747800469398,
        0.0079960823059082031
      ],
      "type": "VEC2"
    },
    {
      "bufferView": 0,
      "componentType": 5125,
      "count": 171081,
      "max": [
        31871
      ],
      "min": [
        0
      ],
      "type": "SCALAR"
    }
  ],
  "asset": {
    "extras": {
      "author": "pooiloui2 (https://sketchfab.com/pooiloui2)",
      "license": "CC-BY-4.0 (http://creativecommons.org/licenses/by/4.0/)",
      "source": "https://sketchfab.com/3d-models/chicken-98830a78e8c54354a7fbe5ca8346fbf9",
      "title": "Chicken"
    },
    "generator": "Sketchfab-8.59.0",
    "version": "2.0"
  },
  "bufferViews": [
    {
      "buffer": 0,
      "byteLength": 684324,
      "byteOffset": 0,
      "name": "floatBufferViews",
      "target": 34963
    },
    {
      "buffer": 0,
      "byteLength": 764928,
      "byteOffset": 684324,
      "byteStride": 8,
      "name": "floatBufferViews",
      "target": 34962
    },
    {
      "buffer": 0,
      "byteLength": 764928,
      "byteOffset": 1449252,
      "byteStride": 12,
      "name": "floatBufferViews",
      "target": 34962
    }
  ],
  "buffers": [
    {
      "byteLength": 2214180,
      "uri": "scene.bin"
    }
  ],
  "extensionsRequired": [
    "KHR_materials_pbrSpecularGlossiness"
  ],
  "extensionsUsed": [
    "KHR_materials_pbrSpecularGlossiness"
  ],
  "images": [
    {
      "uri": "textures/material_diffuse.png"
    },
    {
      "uri": "textures/material_specularGlossiness.png"
    }
  ],
  "materials": [
    {
      "doubleSided": true,
      "emissiveFactor": [
        0,
        0,
        0
      ],
      "extensions": {
        "KHR_materials_pbrSpecularGlossiness": {
          "diffuseFactor": [
            1,
            1,
            1,
            1
          ],
          "diffuseTexture": {
            "index": 0,
            "texCoord": 0
          },
          "glossinessFactor": 1,
          "specularFactor": [
            1,
            1,
            1
          ],
          "specularGlossinessTexture": {
            "index": 1,
            "texCoord": 0
          }
        }
      },
      "name": "material"
    }
  ],
  "meshes": [
    {
      "primitives": [
        {
          "attributes": {
            "NORMAL": 1,
            "POSITION": 0,
            "TEXCOORD_0": 2,
            "TEXCOORD_1": 3,
            "TEXCOORD_2": 4
          },
          "indices": 5,
          "material": 0,
          "mode": 4
        }
      ]
    }
  ],
  "nodes": [
    {
      "children": [
        1
      ],
      "name": "RootNode (gltf orientation matrix)",
      "rotation": [
        -0.70710678118654746,
        -0,
        -0,
        0.70710678118654757
      ]
    },
    {
      "children": [
        2
      ],
      "matrix": [
        2.0817372798919678,
        0,
        0,
        0,
        0,
        2.0817372798919678,
        0,
        0,
        0,
        0,
        2.0817372798919678,
        0,
        0,
        0,
        0,
        1
      ],
      "name": "RootNode (model correction matrix)"
    },
    {
      "children": [
        3
      ],
      "name": "root"
    },
    {
      "children": [
        4
      ],
      "matrix": [
        1,
        0,
        0,
        0,
        0,
        2.2204460492503131e-16,
        1,
        0,
        0,
        -1,
        2.2204460492503131e-16,
        0,
        0,
        0,
        0,
        1
      ],
      "name": "GLTF_SceneRootNode"
    },
    {
      "children": [
        5
      ],
      "name": "root_1"
    },
    {
      "children": [
        6
      ],
      "matrix": [
        0.031585325976705839,
        -0,
        -0.12851033240774987,
        0,
        0,
        0.13233494758605957,
        0,
        0,
        0.12851033240774987,
        0,
        0.031585325976705839,
        0,
        0.00014940793334972113,
        -0.25200808048248291,
        0.25585117936134338,
        1
      ],
      "name": "node_id53_0"
    },
    {
      "mesh": 0,
      "name": ""
    }
  ],
  "samplers": [
    {
      "magFilter": 9729,
      "minFilter": 9987,
      "wrapS": 10497,
      "wrapT": 10497
    }
  ],
  "scene": 0,
  "scenes": [
    {
      "name": "OSG_Scene",
      "nodes": [
        0
      ]
    }
  ],
  "textures": [
    {
      "sampler": 0,
      "source": 0
    },
    {
      "sampler": 0,
      "source": 1
    }
  ]
}

