{
  "accessors": [
    {
      "bufferView": 2,
      "componentType": 5126,
      "count": 11588,
      "max": [
        0.61407983303070068,
        1.8756884336471558,
        1.2098610401153564
      ],
      "min": [
        -0.58682698011398315,
        -0.0069118253886699677,
        -0.99646258354187012
      ],
      "type": "VEC3"
    },
    {
      "bufferView": 2,
      "byteOffset": 139056,
      "componentType": 5126,
      "count": 11588,
      "max": [
        0.99995386600494385,
        0.9999619722366333,
        0.99997055530548096
      ],
      "min": [
        -0.99996590614318848,
        -0.9998544454574585,
        -0.99998736381530762
      ],
      "type": "VEC3"
    },
    {
      "bufferView": 3,
      "componentType": 5126,
      "count": 11588,
      "max": [
        0.46274510025978088,
        0.27450981736183167,
        0.17254902422428131,
        1
      ],
      "min": [
        0.070588238537311554,
        0.054901961237192154,
        0.027450980618596077,
        1
      ],
      "type": "VEC4"
    },
    {
      "bufferView": 0,
      "componentType": 5125,
      "count": 69180,
      "max": [
        11587
      ],
      "min": [
        0
      ],
      "type": "SCALAR"
    },
    {
      "bufferView": 2,
      "byteOffset": 278112,
      "componentType": 5126,
      "count": 19936,
      "max": [
        0.22298403084278107,
        1.4409240484237671,
        0.96703815460205078
      ],
      "min": [
        -0.22237011790275574,
        1.1723102331161499,
        0.73389983177185059
      ],
      "type": "VEC3"
    },
    {
      "bufferView": 2,
      "byteOffset": 517344,
      "componentType": 5126,
      "count": 19936,
      "max": [
        0.99992549419403076,
        0.99978411197662354,
        0.99964070320129395
      ],
      "min": [
        -0.99992549419403076,
        -0.99978470802307129,
        -0.99964070320129395
      ],
      "type": "VEC3"
    },
    {
      "bufferView": 3,
      "byteOffset": 185408,
      "componentType": 5126,
      "count": 19936,
      "max": [
        1,
        1,
        1,
        1
      ],
      "min": [
        0,
        0,
        0,
        1
      ],
      "type": "VEC4"
    },
    {
      "bufferView": 1,
      "componentType": 5126,
      "count": 19936,
      "max": [
        1.0000003576278687,
        1.0000001192092896
      ],
      "min": [
        0,
        0
      ],
      "type": "VEC2"
    },
    {
      "bufferView": 0,
      "byteOffset": 276720,
      "componentType": 5125,
      "count": 101376,
      "max": [
        19935
      ],
      "min": [
        0
      ],
      "type": "SCALAR"
    },
    {
      "bufferView": 2,
      "byteOffset": 756576,
      "componentType": 5126,
      "count": 12018,
      "max": [
        0.80069506168365479,
        0.10701549798250198,
        1.1663210391998291
      ],
      "min": [
        -0.80161839723587036,
        -0.83207476139068604,
        -1.9533746242523193
      ],
      "type": "VEC3"
    },
    {
      "bufferView": 2,
      "byteOffset": 900792,
      "componentType": 5126,
      "count": 12018,
      "max": [
        0.99928271770477295,
        0.98939669132232666,
        0.97696352005004883
      ],
      "min": [
        -0.99870008230209351,
        -0.99992191791534424,
        -0.95934432744979858
      ],
      "type": "VEC3"
    },
    {
      "bufferView": 3,
      "byteOffset": 504384,
      "componentType": 5126,
      "count": 12018,
      "max": [
        0.22352941334247589,
        0.40784314274787903,
        0.050980392843484879,
        1
      ],
      "min": [
        0.070588238537311554,
        0.14509804546833038,
        0.0039215688593685627,
        1
      ],
      "type": "VEC4"
    },
    {
      "bufferView": 1,
      "byteOffset": 159488,
      "componentType": 5126,
      "count": 12018,
      "max": [
        1.0000001192092896,
        1
      ],
      "min": [
        -4.3773717095518805e-08,
        0
      ],
      "type": "VEC2"
    },
    {
      "bufferView": 0,
      "byteOffset": 682224,
      "componentType": 5125,
      "count": 72000,
      "max": [
        12017
      ],
      "min": [
        0
      ],
      "type": "SCALAR"
    },
    {
      "bufferView": 2,
      "byteOffset": 1045008,
      "componentType": 5126,
      "count": 5771,
      "max": [
        1.1601489782333374,
        2.0000002384185791,
        1.3673386573791504
      ],
      "min": [
        -0.8398514986038208,
        0,
        -0.96945726871490479
      ],
      "type": "VEC3"
    },
    {
      "bufferView": 2,
      "byteOffset": 1114260,
      "componentType": 5126,
      "count": 5771,
      "max": [
        0,
        0,
        -0
      ],
      "min": [
        -1,
        -1,
        -1
      ],
      "type": "VEC3"
    },
    {
      "bufferView": 1,
      "byteOffset": 255632,
      "componentType": 5126,
      "count": 5771,
      "max": [
        0.62500011920928955,
        0.75000011920928955
      ],
      "min": [
        0.125,
        0
      ],
      "type": "VEC2"
    },
    {
      "bufferView": 0,
      "byteOffset": 970224,
      "componentType": 5125,
      "count": 32256,
      "max": [
        5770
      ],
      "min": [
        0
      ],
      "type": "SCALAR"
    }
  ],
  "asset": {
    "extras": {
      "author": "Katerina Novakova (https://sketchfab.com/KaterinaNovakova)",
      "license": "CC-BY-4.0 (http://creativecommons.org/licenses/by/4.0/)",
      "source": "https://sketchfab.com/3d-models/day-4-sneaking-insect-4063614d80354766940b343edb140819",
      "title": "Day 4: Sneaking Insect"
    },
    "generator": "Sketchfab-9.95.0",
    "version": "2.0"
  },
  "bufferViews": [
    {
      "buffer": 0,
      "byteLength": 1099248,
      "byteOffset": 0,
      "name": "floatBufferViews",
      "target": 34963
    },
    {
      "buffer": 0,
      "byteLength": 301800,
      "byteOffset": 1099248,
      "byteStride": 8,
      "name": "floatBufferViews",
      "target": 34962
    },
    {
      "buffer": 0,
      "byteLength": 1183512,
      "byteOffset": 1401048,
      "byteStride": 12,
      "name": "floatBufferViews",
      "target": 34962
    },
    {
      "buffer": 0,
      "byteLength": 696672,
      "byteOffset": 2584560,
      "byteStride": 16,
      "name": "floatBufferViews",
      "target": 34962
    }
  ],
  "buffers": [
    {
      "byteLength": 3281232,
      "uri": "scene.bin"
    }
  ],
  "materials": [
    {
      "doubleSided": true,
      "emissiveFactor": [
        0,
        0,
        0
      ],
      "name": "material",
      "pbrMetallicRoughness": {
        "baseColorFactor": [
          1,
          1,
          1,
          1
        ],
        "metallicFactor": 0,
        "roughnessFactor": 0.59999999999999998
      }
    },
    {
      "doubleSided": true,
      "emissiveFactor": [
        0,
        0,
        0
      ],
      "name": "Eyes",
      "pbrMetallicRoughness": {
        "baseColorFactor": [
          1,
          1,
          1,
          1
        ],
        "metallicFactor": 0,
        "roughnessFactor": 0.5
      }
    },
    {
      "doubleSided": true,
      "emissiveFactor": [
        0,
        0,
        0
      ],
      "name": "Leaf",
      "pbrMetallicRoughness": {
        "baseColorFactor": [
          1,
          1,
          1,
          1
        ],
        "metallicFactor": 0,
        "roughnessFactor": 0.75
      }
    },
    {
      "alphaMode": "BLEND",
      "doubleSided": true,
      "emissiveFactor": [
        0,
        0,
        0
      ],
      "name": "Backdrop",
      "pbrMetallicRoughness": {
        "baseColorFactor": [
          0.20791599999999999,
          0.18374699999999999,
          0.14574500000000001,
          0
        ],
        "metallicFactor": 0,
        "roughnessFactor": 1
      }
    }
  ],
  "meshes": [
    {
      "primitives": [
        {
          "attributes": {
            "COLOR_0": 2,
            "NORMAL": 1,
            "POSITION": 0
          },
          "indices": 3,
          "material": 0,
          "mode": 4
        }
      ]
    },
    {
      "primitives": [
        {
          "attributes": {
            "COLOR_0": 6,
            "NORMAL": 5,
            "POSITION": 4,
            "TEXCOORD_0": 7
          },
          "indices": 8,
          "material": 1,
          "mode": 4
        }
      ]
    },
    {
      "primitives": [
        {
          "attributes": {
            "COLOR_0": 11,
            "NORMAL": 10,
            "POSITION": 9,
            "TEXCOORD_0": 12
          },
          "indices": 13,
          "material": 2,
          "mode": 4
        }
      ]
    },
    {
      "primitives": [
        {
          "attributes": {
            "NORMAL": 15,
            "POSITION": 14,
            "TEXCOORD_0": 16
          },
          "indices": 17,
          "material": 3,
          "mode": 4
        }
      ]
    }
  ],
  "nodes": [
    {
      "children": [
        1
      ],
      "name": "RootNode (gltf orientation matrix)",
      "rotation": [
        -0.70710678118654746,
        -0,
        -0,
        0.70710678118654757
      ]
    },
    {
      "children": [
        2
      ],
      "name": "RootNode (model correction matrix)"
    },
    {
      "children": [
        3
      ],
      "name": "root"
    },
    {
      "children": [
        4,
        8,
        10
      ],
      "matrix": [
        1,
        0,
        0,
        0,
        0,
        2.2204460492503131e-16,
        1,
        0,
        0,
        -1,
        2.2204460492503131e-16,
        0,
        0,
        0,
        0,
        1
      ],
      "name": "GLTF_SceneRootNode"
    },
    {
      "children": [
        5,
        6
      ],
      "name": "Ant_1"
    },
    {
      "mesh": 0,
      "name": ""
    },
    {
      "children": [
        7
      ],
      "name": "Eyes_0"
    },
    {
      "mesh": 1,
      "name": ""
    },
    {
      "children": [
        9
      ],
      "matrix": [
        0.67785274982452393,
        0,
        0,
        0,
        0,
        0.71843406668070564,
        0.074165083821612132,
        0,
        0,
        -0.07416508994216757,
        0.71843412597027034,
        0,
        0.028702527284622192,
        1.8746155500411987,
        0.8647385835647583,
        1
      ],
      "name": "Leaf_2"
    },
    {
      "mesh": 2,
      "name": ""
    },
    {
      "children": [
        11
      ],
      "matrix": [
        1.8416443195010999,
        0,
        3.920371617114021,
        0,
        0,
        2.5676450729370117,
        0,
        0,
        -2.323991913140266,
        -0,
        1.091724694342104,
        0,
        0.41749763488769531,
        -0.0018727779388427734,
        -1.7701997756958008,
        1
      ],
      "name": "Backdrop_4"
    },
    {
      "mesh": 3,
      "name": ""
    }
  ],
  "scene": 0,
  "scenes": [
    {
      "name": "OSG_Scene",
      "nodes": [
        0
      ]
    }
  ]
}

